<svg width="64" height="64" viewBox="0 0 64 64" fill="none" xmlns="http://www.w3.org/2000/svg">
<path d="M4.7202 47.75L32 0.499999L59.2798 47.75H4.7202Z" stroke="#DCDDE4" stroke-width="0.5"/>
<path d="M7.177 49.2498L32 6.49764L56.823 49.2498H7.177Z" fill="#0031DD" fill-opacity="0.06" stroke="#DCDDE4" stroke-width="0.5"/>
<g filter="url(#filter0_d_122_809)">
<path d="M22.1521 39.3498V38.956L22.6679 38.8686V35.2654H21.6236L21.5318 35.8967H21.0635V34.7998H24.8926V35.8967H24.4306L24.3356 35.2654H23.2913V38.8686L23.8071 38.956V39.3498H22.1521ZM26.19 39.4154C25.8335 39.4154 25.5624 39.33 25.3768 39.1592C25.1911 38.9862 25.0983 38.7436 25.0983 38.4311C25.0983 38.2165 25.1574 38.03 25.2755 37.8717C25.3957 37.7113 25.5688 37.5873 25.7945 37.4998C26.0202 37.4102 26.2903 37.3654 26.6046 37.3654H27.2154V37.0342C27.2154 36.83 27.1521 36.6717 27.0255 36.5592C26.901 36.4467 26.7249 36.3904 26.497 36.3904C26.3536 36.3904 26.2291 36.4081 26.1236 36.4436C26.0181 36.4769 25.9221 36.5238 25.8356 36.5842L25.7692 37.0561H25.2882V36.2811C25.4422 36.1581 25.6215 36.0654 25.8261 36.0029C26.0308 35.9383 26.2576 35.9061 26.5065 35.9061C26.9221 35.9061 27.2481 36.004 27.4844 36.1998C27.7207 36.3956 27.8388 36.6758 27.8388 37.0404V38.6686C27.8388 38.7123 27.8388 38.755 27.8388 38.7967C27.8409 38.8384 27.8441 38.88 27.8483 38.9217L28.1806 38.956V39.3498H27.285C27.266 39.2581 27.2512 39.1758 27.2407 39.1029C27.2302 39.03 27.2227 38.9571 27.2185 38.8842C27.0983 39.0362 26.9474 39.1634 26.766 39.2654C26.5867 39.3654 26.3947 39.4154 26.19 39.4154ZM26.2818 38.8998C26.4886 38.8998 26.6774 38.8508 26.8483 38.7529C27.0192 38.655 27.1415 38.5373 27.2154 38.3998V37.7873H26.5825C26.2956 37.7873 26.0803 37.855 25.9369 37.9904C25.7934 38.1258 25.7217 38.2769 25.7217 38.4436C25.7217 38.5915 25.7681 38.705 25.861 38.7842C25.9538 38.8612 26.0941 38.8998 26.2818 38.8998ZM29.8736 39.4029C29.6204 39.4029 29.419 39.33 29.2692 39.1842C29.1215 39.0362 29.0476 38.8008 29.0476 38.4779V36.4248H28.5065V35.9686H29.0476V35.1529H29.6711V35.9686H30.4147V36.4248H29.6711V38.4779C29.6711 38.6404 29.7038 38.7602 29.7692 38.8373C29.8346 38.9144 29.9221 38.9529 30.0318 38.9529C30.1057 38.9529 30.1879 38.9467 30.2787 38.9342C30.3694 38.9196 30.44 38.9071 30.4907 38.8967L30.5761 39.2998C30.4854 39.3269 30.3736 39.3508 30.2407 39.3717C30.1099 39.3925 29.9875 39.4029 29.8736 39.4029ZM32.1837 39.4029C31.9306 39.4029 31.7291 39.33 31.5793 39.1842C31.4316 39.0362 31.3578 38.8008 31.3578 38.4779V36.4248H30.8166V35.9686H31.3578V35.1529H31.9812V35.9686H32.7249V36.4248H31.9812V38.4779C31.9812 38.6404 32.0139 38.7602 32.0793 38.8373C32.1447 38.9144 32.2322 38.9529 32.342 38.9529C32.4158 38.9529 32.4981 38.9467 32.5888 38.9342C32.6795 38.9196 32.7502 38.9071 32.8008 38.8967L32.8863 39.2998C32.7955 39.3269 32.6837 39.3508 32.5508 39.3717C32.42 39.3925 32.2977 39.4029 32.1837 39.4029ZM34.7692 39.4154C34.4527 39.4154 34.1795 39.3425 33.9496 39.1967C33.7217 39.0488 33.5455 38.8456 33.4211 38.5873C33.2966 38.3269 33.2344 38.03 33.2344 37.6967V37.6279C33.2344 37.2946 33.2966 36.9988 33.4211 36.7404C33.5455 36.48 33.7217 36.2758 33.9496 36.1279C34.1795 35.98 34.4506 35.9061 34.7628 35.9061C35.0793 35.9061 35.3514 35.98 35.5793 36.1279C35.8092 36.2758 35.9865 36.479 36.1109 36.7373C36.2354 36.9956 36.2977 37.2925 36.2977 37.6279V37.6967C36.2977 38.0321 36.2354 38.33 36.1109 38.5904C35.9865 38.8488 35.8103 39.0508 35.5825 39.1967C35.3546 39.3425 35.0835 39.4154 34.7692 39.4154ZM34.7692 38.9342C34.9675 38.9342 35.1331 38.881 35.266 38.7748C35.401 38.6665 35.5023 38.5196 35.5698 38.3342C35.6394 38.1467 35.6742 37.9342 35.6742 37.6967V37.6279C35.6742 37.3904 35.6394 37.179 35.5698 36.9936C35.5023 36.8061 35.401 36.6592 35.266 36.5529C35.131 36.4446 34.9633 36.3904 34.7628 36.3904C34.5645 36.3904 34.3979 36.4446 34.2628 36.5529C34.1278 36.6592 34.0266 36.8061 33.959 36.9936C33.8915 37.179 33.8578 37.3904 33.8578 37.6279V37.6967C33.8578 37.9342 33.8915 38.1467 33.959 38.3342C34.0266 38.5196 34.1278 38.6665 34.2628 38.7748C34.4 38.881 34.5687 38.9342 34.7692 38.9342ZM38.44 39.4154C38.1236 39.4154 37.8504 39.3425 37.6204 39.1967C37.3926 39.0488 37.2164 38.8456 37.092 38.5873C36.9675 38.3269 36.9053 38.03 36.9053 37.6967V37.6279C36.9053 37.2946 36.9675 36.9988 37.092 36.7404C37.2164 36.48 37.3926 36.2758 37.6204 36.1279C37.8504 35.98 38.1215 35.9061 38.4337 35.9061C38.7502 35.9061 39.0223 35.98 39.2502 36.1279C39.4801 36.2758 39.6573 36.479 39.7818 36.7373C39.9063 36.9956 39.9685 37.2925 39.9685 37.6279V37.6967C39.9685 38.0321 39.9063 38.33 39.7818 38.5904C39.6573 38.8488 39.4812 39.0508 39.2533 39.1967C39.0255 39.3425 38.7544 39.4154 38.44 39.4154ZM38.44 38.9342C38.6384 38.9342 38.804 38.881 38.9369 38.7748C39.0719 38.6665 39.1732 38.5196 39.2407 38.3342C39.3103 38.1467 39.3451 37.9342 39.3451 37.6967V37.6279C39.3451 37.3904 39.3103 37.179 39.2407 36.9936C39.1732 36.8061 39.0719 36.6592 38.9369 36.5529C38.8019 36.4446 38.6341 36.3904 38.4337 36.3904C38.2354 36.3904 38.0688 36.4446 37.9337 36.5529C37.7987 36.6592 37.6974 36.8061 37.6299 36.9936C37.5624 37.179 37.5286 37.3904 37.5286 37.6279V37.6967C37.5286 37.9342 37.5624 38.1467 37.6299 38.3342C37.6974 38.5196 37.7987 38.6665 37.9337 38.7748C38.0709 38.881 38.2396 38.9342 38.44 38.9342Z" fill="#F8F8F8"/>
</g>
<g filter="url(#filter1_d_122_809)">
<path d="M21.0635 32.0752V31.6814L21.5793 31.594V28.0096L21.0635 27.9221V27.5252H21.5793H22.8673C23.2744 27.5252 23.6289 27.621 23.9306 27.8127C24.2344 28.0044 24.4706 28.2679 24.6394 28.6033C24.8082 28.9387 24.8926 29.3221 24.8926 29.7533V29.8502C24.8926 30.271 24.8114 30.6502 24.6489 30.9877C24.4865 31.3231 24.2555 31.5888 23.9559 31.7846C23.6584 31.9783 23.3061 32.0752 22.8989 32.0752H21.0635ZM22.2027 31.594H22.8673C23.1584 31.594 23.4084 31.5158 23.6173 31.3596C23.8261 31.2012 23.9865 30.9908 24.0983 30.7283C24.2122 30.4637 24.2692 30.171 24.2692 29.8502V29.7471C24.2692 29.4158 24.2122 29.12 24.0983 28.8596C23.9865 28.5971 23.8261 28.3898 23.6173 28.2377C23.4084 28.0856 23.1584 28.0096 22.8673 28.0096H22.2027V31.594ZM26.8926 32.1408C26.5761 32.1408 26.3008 32.07 26.0667 31.9283C25.8324 31.7846 25.651 31.5856 25.5223 31.3314C25.3957 31.0773 25.3325 30.7835 25.3325 30.4502V30.3127C25.3325 29.9919 25.3989 29.7054 25.5318 29.4533C25.6669 29.1992 25.8451 28.9992 26.0667 28.8533C26.2903 28.7054 26.5339 28.6314 26.7977 28.6314C27.1057 28.6314 27.3631 28.6939 27.5698 28.8189C27.7787 28.9439 27.9359 29.12 28.0413 29.3471C28.1468 29.5721 28.1996 29.8377 28.1996 30.1439V30.5283H25.978L25.9685 30.5439C25.9728 30.7606 26.0108 30.9533 26.0824 31.1221C26.1563 31.2888 26.2618 31.42 26.3989 31.5158C26.536 31.6116 26.7006 31.6596 26.8926 31.6596C27.1036 31.6596 27.2882 31.6304 27.4464 31.5721C27.6067 31.5116 27.7449 31.4294 27.861 31.3252L28.1046 31.7252C27.9822 31.8419 27.8198 31.9408 27.6173 32.0221C27.4168 32.1012 27.1753 32.1408 26.8926 32.1408ZM25.997 30.0471H27.5761V29.9658C27.5761 29.8033 27.5466 29.6585 27.4875 29.5314C27.4306 29.4023 27.3441 29.3012 27.228 29.2283C27.1141 29.1533 26.9706 29.1158 26.7977 29.1158C26.6584 29.1158 26.5318 29.1564 26.4179 29.2377C26.304 29.3169 26.2101 29.4252 26.1362 29.5627C26.0624 29.7002 26.0139 29.8564 25.9907 30.0314L25.997 30.0471ZM30.092 32.1408C29.862 32.1408 29.6468 32.1179 29.4464 32.0721C29.246 32.0262 29.0329 31.9554 28.8071 31.8596L28.8008 31.0564H29.2723L29.3894 31.5408C29.5076 31.5888 29.6215 31.6242 29.7312 31.6471C29.843 31.6679 29.9633 31.6783 30.092 31.6783C30.3451 31.6783 30.5266 31.6304 30.6362 31.5346C30.746 31.4388 30.8008 31.32 30.8008 31.1783C30.8008 31.045 30.7449 30.9325 30.6331 30.8408C30.5234 30.7471 30.323 30.6679 30.0318 30.6033C29.6183 30.5096 29.3135 30.3846 29.1173 30.2283C28.9232 30.07 28.8261 29.8596 28.8261 29.5971C28.8261 29.4137 28.8799 29.2502 28.9875 29.1064C29.0951 28.9606 29.2449 28.845 29.4369 28.7596C29.6289 28.6742 29.8525 28.6314 30.1078 28.6314C30.3673 28.6314 30.5888 28.6606 30.7724 28.7189C30.958 28.7773 31.1194 28.8554 31.2565 28.9533L31.2882 29.7252H30.8198L30.7186 29.2752C30.6447 29.221 30.5571 29.1794 30.4559 29.1502C30.3546 29.121 30.2386 29.1064 30.1078 29.1064C29.9137 29.1064 29.7554 29.1512 29.6331 29.2408C29.5128 29.3304 29.4527 29.4429 29.4527 29.5783C29.4527 29.6575 29.4696 29.7262 29.5034 29.7846C29.5392 29.8429 29.6067 29.896 29.7059 29.9439C29.805 29.9898 29.9506 30.0356 30.1426 30.0814C30.6194 30.1919 30.9517 30.3325 31.1394 30.5033C31.3293 30.6742 31.4242 30.8846 31.4242 31.1346C31.4242 31.42 31.3166 31.6596 31.1015 31.8533C30.8884 32.045 30.5519 32.1408 30.092 32.1408ZM33.1489 32.1283C32.8958 32.1283 32.6943 32.0554 32.5445 31.9096C32.3968 31.7616 32.323 31.5262 32.323 31.2033V29.1502H31.7819V28.6939H32.323V27.8783H32.9464V28.6939H33.6901V29.1502H32.9464V31.2033C32.9464 31.3658 32.9791 31.4856 33.0445 31.5627C33.1099 31.6398 33.1974 31.6783 33.3072 31.6783C33.381 31.6783 33.4633 31.6721 33.554 31.6596C33.6447 31.645 33.7154 31.6325 33.766 31.6221L33.8514 32.0252C33.7607 32.0523 33.6489 32.0762 33.516 32.0971C33.3852 32.1179 33.2628 32.1283 33.1489 32.1283ZM34.228 32.0752V31.6814L34.7438 31.594V29.1783L34.228 29.0908V28.6939H35.3673V31.594L35.8831 31.6814V32.0752H34.228ZM34.7122 27.8596V27.2002H35.3673V27.8596H34.7122ZM36.3135 32.0752V31.6814L36.8293 31.594V29.1783L36.3135 29.0908V28.6939H37.3863L37.4306 29.1971C37.5445 29.0179 37.6869 28.8794 37.8578 28.7814C38.0308 28.6814 38.227 28.6314 38.4464 28.6314C38.8156 28.6314 39.1015 28.7387 39.304 28.9533C39.5065 29.1658 39.6078 29.495 39.6078 29.9408V31.594L40.1236 31.6814V32.0752H38.4686V31.6814L38.9844 31.594V29.9533C38.9844 29.6554 38.9242 29.4439 38.804 29.3189C38.6858 29.1939 38.5044 29.1314 38.2597 29.1314C38.0803 29.1314 37.9211 29.1742 37.7818 29.2596C37.6447 29.345 37.535 29.4617 37.4527 29.6096V31.594L37.9685 31.6814V32.0752H36.3135Z" fill="#F8F8F8"/>
</g>
<defs>
<filter id="filter0_d_122_809" x="21.0635" y="34.7998" width="18.9053" height="6.61572" filterUnits="userSpaceOnUse" color-interpolation-filters="sRGB">
<feFlood flood-opacity="0" result="BackgroundImageFix"/>
<feColorMatrix in="SourceAlpha" type="matrix" values="0 0 0 0 0 0 0 0 0 0 0 0 0 0 0 0 0 0 127 0" result="hardAlpha"/>
<feOffset dy="2"/>
<feComposite in2="hardAlpha" operator="out"/>
<feColorMatrix type="matrix" values="0 0 0 0 0 0 0 0 0 0.0403333 0 0 0 0 0.183333 0 0 0 0.65 0"/>
<feBlend mode="normal" in2="BackgroundImageFix" result="effect1_dropShadow_122_809"/>
<feBlend mode="normal" in="SourceGraphic" in2="effect1_dropShadow_122_809" result="shape"/>
</filter>
<filter id="filter1_d_122_809" x="21.0635" y="27.2002" width="19.0601" height="6.94067" filterUnits="userSpaceOnUse" color-interpolation-filters="sRGB">
<feFlood flood-opacity="0" result="BackgroundImageFix"/>
<feColorMatrix in="SourceAlpha" type="matrix" values="0 0 0 0 0 0 0 0 0 0 0 0 0 0 0 0 0 0 127 0" result="hardAlpha"/>
<feOffset dy="2"/>
<feComposite in2="hardAlpha" operator="out"/>
<feColorMatrix type="matrix" values="0 0 0 0 0 0 0 0 0 0 0 0 0 0 0 0 0 0 0.25 0"/>
<feBlend mode="normal" in2="BackgroundImageFix" result="effect1_dropShadow_122_809"/>
<feBlend mode="normal" in="SourceGraphic" in2="effect1_dropShadow_122_809" result="shape"/>
</filter>
</defs>
</svg>
